<?xml version="1.0" encoding="iso-8859-1"?>
<!-- Uploaded to: SVG Repo, www.svgrepo.com, Generator: SVG Repo Mixer Tools -->
<svg height="800px" width="800px" version="1.1" id="Layer_1" xmlns="http://www.w3.org/2000/svg" xmlns:xlink="http://www.w3.org/1999/xlink" 
	 viewBox="0 0 512.169 512.169" xml:space="preserve">
<g transform="translate(1)">
	<g>
		<path style="fill:#FFDD09;" d="M413.951,503.342H113.813c-5.297,0-8.828-3.531-8.828-8.828s3.531-8.828,8.828-8.828h300.138
			c5.297,0,8.828,3.531,8.828,8.828S419.248,503.342,413.951,503.342z"/>
		<path style="fill:#FFDD09;" d="M272.71,167.893L272.71,167.893c-5.297,0-8.828-4.414-8.828-8.828
			c0-35.31,7.062-58.262,23.834-83.862c2.648-4.414,7.945-5.297,12.359-2.648c4.414,2.648,5.297,7.945,2.648,12.359
			c-15.007,22.952-21.186,42.372-21.186,74.152C281.537,164.362,277.123,167.893,272.71,167.893z"/>
		<path style="fill:#FFDD09;" d="M272.71,512.169c-5.297,0-8.828-3.531-8.828-8.828V159.066c0-5.297,3.531-8.828,8.828-8.828
			c5.297,0,8.828,3.531,8.828,8.828v344.276C281.537,508.638,278.006,512.169,272.71,512.169z"/>
		<path style="fill:#FFDD09;" d="M272.71,415.066c-3.531,0-6.179-1.766-7.945-4.414c-12.359-22.069-25.6-34.428-35.31-43.255
			c-2.648-2.648-5.297-5.297-7.945-7.945c-3.531-3.531-3.531-8.828,0-12.359c3.531-3.531,8.828-3.531,12.359,0
			c1.766,1.766,4.414,4.414,7.062,7.062c10.593,9.71,24.717,22.952,37.959,47.669c2.648,4.414,0.883,9.71-3.531,12.359
			C275.358,415.066,274.475,415.066,272.71,415.066z"/>
		<path style="fill:#FFDD09;" d="M272.71,459.204c-1.766,0-2.648,0-4.414-0.883c-4.414-2.648-6.179-7.945-3.531-12.359
			c16.772-30.897,37.076-53.848,54.731-72.386c3.531-3.531,8.828-3.531,12.359,0c3.531,3.531,3.531,8.828,0,12.359
			c-16.772,17.655-36.193,39.724-51.2,68.855C278.889,457.438,276.241,459.204,272.71,459.204z"/>
		<path style="fill:#FFDD09;" d="M272.71,273.824c-5.297,0-8.828-3.531-8.828-8.828c0-18.538-23.835-46.786-32.662-55.614
			l-35.31-38.841c-3.531-3.531-2.648-8.828,0.883-12.359c3.531-3.531,8.828-2.648,12.359,0.883l35.31,37.959
			c3.531,3.531,37.959,38.841,37.959,67.972C281.537,270.293,278.006,273.824,272.71,273.824z"/>
		<path style="fill:#FFDD09;" d="M272.71,309.135c-5.297,0-8.828-3.531-8.828-8.828c0-24.717,29.131-58.262,37.959-67.972
			l3.531-4.414c9.71-11.476,30.897-34.428,50.317-49.434c3.531-2.648,9.71-2.648,12.359,1.766c2.648,4.414,2.648,9.71-1.766,12.359
			c-17.655,14.124-37.959,36.193-47.669,47.669c-1.766,1.766-3.531,3.531-4.414,4.414c-19.421,21.186-32.662,44.138-32.662,55.614
			C281.537,305.604,278.006,309.135,272.71,309.135z"/>
		<path style="fill:#FFDD09;" d="M413.951,123.755c-80.331,0-114.759,8.828-114.759,114.759
			C379.523,238.514,413.951,229.686,413.951,123.755"/>
	</g>
	<path style="fill:#FD9808;" d="M387.468,124.638c0,92.69-26.483,110.345-88.276,113.876l0,0
		c80.331,0,114.759-8.828,114.759-114.759C404.241,123.755,395.413,123.755,387.468,124.638"/>
	<path style="fill:#FFDD09;" d="M219.744,353.273c0-114.759-47.669-141.241-150.069-141.241
		C69.675,322.376,136.765,353.273,219.744,353.273"/>
	<path style="fill:#FFFFFF;" d="M96.158,212.914c-8.828-0.883-17.655-0.883-26.483-0.883c0,110.345,67.09,141.241,150.069,141.241
		v-0.883C150.006,345.328,96.158,310.9,96.158,212.914"/>
	<path style="fill:#FFDD09;" d="M316.848,379.755c0-96.221,43.255-114.759,123.586-114.759
		C442.199,358.569,399.827,379.755,316.848,379.755"/>
	<path style="fill:#FD9808;" d="M413.951,265.879c0.883,82.097-31.779,107.697-97.103,112.993v0.883
		c82.979,0,125.352-21.186,123.586-114.759C430.723,264.997,421.896,264.997,413.951,265.879"/>
	<path style="fill:#FFDD09;" d="M343.33,8.997c22.069,69.738-32.662,109.462-75.917,114.759
		C234.751,76.086,256.82,20.473,343.33,8.997"/>
	<path style="fill:#FD9808;" d="M343.33,8.997c-7.945,0.883-15.007,2.648-22.069,4.414c15.89,56.497-20.303,92.69-57.379,105.931
		c0.883,1.766,1.766,3.531,2.648,4.414C309.786,118.459,365.399,78.735,343.33,8.997"/>
	<path style="fill:#FFDD09;" d="M228.572,203.204c-74.152,0-88.276-35.31-88.276-97.103
		C211.799,105.217,228.572,139.645,228.572,203.204"/>
	<path style="fill:#FFFFFF;" d="M157.951,106.983c-5.297-0.883-11.476-0.883-17.655-0.883c0,61.793,14.124,97.103,88.276,97.103
		v-0.883C170.31,197.024,157.951,162.597,157.951,106.983"/>
	<path d="M413.951,512.169H113.813c-5.297,0-8.828-3.531-8.828-8.828s3.531-8.828,8.828-8.828h300.138
		c5.297,0,8.828,3.531,8.828,8.828S419.248,512.169,413.951,512.169z"/>
	<path d="M263.882,512.169c-5.297,0-8.828-3.531-8.828-8.828V159.066c0-5.297,3.531-8.828,8.828-8.828
		c5.297,0,8.828,3.531,8.828,8.828v344.276C272.71,508.638,269.179,512.169,263.882,512.169z"/>
	<path d="M263.882,415.066c-3.531,0-6.179-1.766-7.945-4.414c-12.359-22.069-25.6-34.428-35.31-43.255
		c-2.648-2.648-5.297-5.297-7.945-7.945c-3.531-3.531-3.531-8.828,0-12.359c3.531-3.531,8.828-3.531,12.359,0
		c1.766,1.766,4.414,4.414,7.062,7.062c10.593,9.71,24.717,22.952,37.959,47.669c2.648,4.414,0.883,9.71-3.531,12.359
		C266.53,415.066,265.648,415.066,263.882,415.066z"/>
	<path d="M219.744,362.1c-105.048,0-158.897-50.317-158.897-150.069c0-5.297,3.531-8.828,8.828-8.828
		c100.634,0,158.897,24.717,158.897,150.069C228.572,358.569,225.041,362.1,219.744,362.1z M78.503,220.859
		c2.648,81.214,45.021,120.938,132.414,123.586C208.268,243.811,164.13,222.624,78.503,220.859z"/>
	<path d="M219.744,362.1c-2.648,0-6.179-1.766-7.062-4.414c-22.069-35.31-44.138-57.379-67.09-67.09
		c-4.414-1.766-6.179-7.062-4.414-11.476c1.766-4.414,7.062-6.179,11.476-4.414c25.6,11.476,50.317,36.193,74.152,74.152
		c2.648,4.414,1.766,9.71-2.648,12.359C223.275,361.217,221.51,362.1,219.744,362.1z"/>
	<path d="M266.53,455.673c-1.766,0-2.648,0-4.414-0.883c-4.414-2.648-6.179-7.945-3.531-11.476
		c15.89-30.014,35.31-52.083,52.966-69.738c3.531-3.531,8.828-3.531,11.476,0c3.531,3.531,3.531,8.828,0,11.476
		c-15.89,16.772-34.428,37.959-49.434,66.207C271.827,453.907,269.179,455.673,266.53,455.673z"/>
	<path d="M316.848,388.583c-5.297,0-8.828-3.531-8.828-8.828c0-103.283,50.317-123.586,132.414-123.586
		c4.414,0,8.828,3.531,8.828,8.828c0.883,44.138-7.945,74.152-27.366,93.572C401.592,379.755,369.813,388.583,316.848,388.583z
		 M431.606,273.824c-68.855,0.883-103.283,17.655-105.931,97.103c42.372-0.883,67.972-7.945,83.862-24.717
		C423.661,331.204,430.723,308.252,431.606,273.824z"/>
	<path d="M316.848,388.583c-1.766,0-3.531,0-4.414-0.883c-4.414-2.648-5.297-7.945-2.648-12.359
		c12.359-21.186,29.131-44.138,57.379-56.497c4.414-1.766,9.71,0,11.476,4.414c1.766,4.414,0,9.71-4.414,11.476
		c-22.952,9.71-37.959,30.897-48.552,49.434C323.027,386.817,319.496,388.583,316.848,388.583z"/>
	<path d="M263.882,167.893L263.882,167.893c-5.297,0-8.828-4.414-8.828-8.828c0-35.31,7.062-58.262,23.834-83.862
		c2.648-4.414,7.945-5.297,12.359-2.648s5.297,7.945,2.648,12.359c-15.007,22.952-21.186,42.372-21.186,74.152
		C272.71,164.362,268.296,167.893,263.882,167.893z"/>
	<path d="M267.413,132.583c-2.648,0-5.297-1.766-7.062-3.531c-16.772-24.717-20.303-51.2-9.71-74.152
		c13.241-29.131,45.903-47.669,91.807-54.731c4.414-0.883,7.945,1.766,9.71,6.179c8.828,29.131,6.179,57.379-7.945,79.448
		c-15.89,24.717-45.021,42.372-75.917,45.903C268.296,132.583,267.413,132.583,267.413,132.583z M337.151,18.707
		c-36.193,6.179-60.91,21.186-70.621,43.255c-7.062,15.89-5.297,34.428,5.297,52.083c18.538-3.531,43.255-15.007,57.379-37.076
		C339.799,60.197,342.448,40.776,337.151,18.707z"/>
	<path d="M228.572,212.031c-80.331,0-97.103-42.372-97.103-105.931c0-4.414,3.531-8.828,8.828-8.828
		c33.545,0,57.379,6.179,73.269,22.069c16.772,16.772,23.834,41.49,23.834,83.862C237.399,208.5,233.868,212.031,228.572,212.031z
		 M149.123,114.928c0.883,50.317,14.124,76.8,70.621,79.448c-0.883-30.897-7.062-50.317-18.538-62.676
		C189.73,121.107,172.958,115.811,149.123,114.928z"/>
	<path d="M263.882,273.824c-5.297,0-8.828-3.531-8.828-8.828c0-18.538-23.834-46.786-32.662-55.614l-35.31-38.841
		c-3.531-3.531-2.648-8.828,0.883-12.359c3.531-3.531,8.828-2.648,12.359,0.883l35.31,37.959
		c3.531,3.531,37.959,38.841,37.959,67.972C272.71,270.293,269.179,273.824,263.882,273.824z"/>
	<path d="M263.882,309.135c-5.297,0-8.828-3.531-8.828-8.828c0-24.717,29.131-58.262,37.959-67.972l3.531-4.414
		c9.71-11.476,30.897-34.428,50.317-49.434c3.531-2.648,9.71-2.648,12.359,1.766c2.648,3.531,2.648,9.71-1.766,12.359
		c-17.655,14.124-37.959,36.193-47.669,47.669c-1.766,1.766-3.531,3.531-4.414,4.414c-19.421,21.186-32.662,44.138-32.662,55.614
		C272.71,305.604,269.179,309.135,263.882,309.135z"/>
	<path d="M299.192,247.342c-5.297,0-8.828-3.531-8.828-8.828c0-111.228,39.724-123.586,123.586-123.586
		c5.297,0,8.828,3.531,8.828,8.828C422.779,234.983,383.055,247.342,299.192,247.342z M405.123,132.583
		c-69.738,0.883-95.338,11.476-97.103,97.103C377.758,228.804,403.358,218.211,405.123,132.583z"/>
</g>
</svg>