<?xml version="1.0" standalone="no"?><svg xmlns="http://www.w3.org/2000/svg" viewBox="0 0 1440 320"><path fill="#00cba9" fill-opacity="1" d="M0,320L20,314.7C40,309,80,299,120,277.3C160,256,200,224,240,202.7C280,181,320,171,360,165.3C400,160,440,160,480,170.7C520,181,560,203,600,192C640,181,680,139,720,128C760,117,800,139,840,160C880,181,920,203,960,224C1000,245,1040,267,1080,282.7C1120,299,1160,309,1200,288C1240,267,1280,213,1320,176C1360,139,1400,117,1420,106.7L1440,96L1440,320L1420,320C1400,320,1360,320,1320,320C1280,320,1240,320,1200,320C1160,320,1120,320,1080,320C1040,320,1000,320,960,320C920,320,880,320,840,320C800,320,760,320,720,320C680,320,640,320,600,320C560,320,520,320,480,320C440,320,400,320,360,320C320,320,280,320,240,320C200,320,160,320,120,320C80,320,40,320,20,320L0,320Z"></path></svg>